<svg width="147" height="148" viewBox="0 0 147 148" fill="none" xmlns="http://www.w3.org/2000/svg">
<path d="M132.858 0H14.1338C6.32792 0 0 6.37133 0 14.2308V133.769C0 141.629 6.32792 148 14.1338 148H132.858C140.664 148 146.992 141.629 146.992 133.769V14.2308C146.992 6.37133 140.664 0 132.858 0Z" fill="#FFC70A"/>
<path d="M28.2676 28.4615V41.2908H90.0281V87.9666H102.807V28.4615H28.2676ZM105.431 28.4615V90.6457H59.0729V103.513H118.21V28.4615H105.431ZM28.2676 43.8944V118.946H41.047V56.7614H87.4048V43.8944H28.2676ZM43.6703 59.4404V118.946H118.21V106.116H56.4496V59.4404H43.6703Z" fill="#2C2E35"/>
</svg>
