<?xml version="1.0" standalone="no"?>
<!DOCTYPE svg PUBLIC "-//W3C//DTD SVG 20010904//EN"
 "http://www.w3.org/TR/2001/REC-SVG-20010904/DTD/svg10.dtd">
<svg version="1.0" xmlns="http://www.w3.org/2000/svg"
 width="592.000000pt" height="592.000000pt" viewBox="0 0 592.000000 592.000000"
 preserveAspectRatio="xMidYMid meet">
<metadata>
Created by potrace 1.14, written by Peter Selinger 2001-2017
</metadata>
<g transform="translate(0.000000,592.000000) scale(0.100000,-0.100000)"
fill="#000000" stroke="none">
<path d="M415 5891 c-81 -27 -119 -45 -142 -65 -7 -6 -30 -24 -51 -41 -79 -61
-148 -171 -182 -291 -19 -67 -20 -114 -20 -2524 0 -2062 2 -2465 14 -2520 45
-210 206 -377 417 -434 47 -13 393 -14 2529 -13 2379 2 2477 3 2520 20 114 47
158 75 230 147 52 52 85 95 108 143 66 138 62 -60 59 2672 -2 2276 -4 2484
-19 2526 -36 102 -70 159 -132 226 -63 68 -133 115 -221 150 l-70 28 -2480 2
-2480 2 -80 -28z"/>
</g>
</svg>
